<svg width="33" height="24" viewBox="0 0 33 24" fill="none" xmlns="http://www.w3.org/2000/svg">
<path d="M32.0549 14.4747C31.8236 14.7456 31.639 15.0632 31.3837 15.311C31.1075 15.2451 30.7904 15.2235 30.5216 15.1511C30.5377 14.8592 30.882 14.8919 30.9705 14.6721C28.7709 14.8343 27.1107 15.0148 25.0209 15.0216C25.388 14.4229 25.9139 13.9812 26.3072 13.4092C23.9445 13.4533 22.1989 14.2102 19.9132 14.4728C20.0377 13.4425 20.893 13.1345 21.3048 12.3879C18.7657 12.4355 17.0335 13.2803 15.7337 14.5531C16.7642 14.4068 17.6365 14.2054 18.5334 14.2052C18.3659 14.8465 18.0559 15.3475 17.8803 15.9818C18.253 16.2181 18.7835 16.0421 19.1971 15.9566C20.468 15.6928 21.8183 15.4134 23.1899 15.1155C23.0629 15.8353 22.3065 15.9339 21.8386 16.3175C21.8293 16.1347 21.903 16.0351 21.9452 15.9038C21.5481 15.9532 21.1498 16.002 20.8035 16.1021C20.2043 17.2584 19.8947 18.7021 18.8045 19.3745C18.6822 19.0653 18.4423 18.881 18.3307 18.5604C19.1164 18.1061 19.3895 17.1459 19.8348 16.3559C19.2007 16.3868 18.4217 16.7634 17.785 16.9832C17.4416 16.8493 17.1791 16.6291 16.971 16.352C17.109 15.8155 17.3382 15.369 17.5153 14.8715C16.9589 15.004 16.6716 15.046 16.0886 15.1342C15.8445 14.7743 15.293 14.7432 14.6505 14.8089C14.7036 14.2922 15.1834 13.9261 15.5451 13.6746C16.0707 13.3082 16.8238 13.1838 17.2445 12.7012C18.3702 12.3908 19.196 11.7841 20.5471 11.697C20.8703 11.0258 20.8968 10.1656 20.7883 9.34027C20.5052 9.81027 20.2402 10.2981 19.7814 10.5945C19.8607 10.2243 19.661 9.60188 19.8116 9.18259C19.1258 9.61977 18.8715 10.4837 18.184 10.9191C18.2535 10.5438 18.0847 9.92494 18.0997 9.5095C17.6898 9.8155 17.2936 10.6346 16.7538 11.0054C16.8102 10.4269 16.8825 9.86336 16.9502 9.29637C16.0805 10.0898 15.3358 11.0067 14.6536 11.9865C15.0188 13.3789 14.3022 13.9085 13.9062 14.8232C12.7915 14.8724 12.54 14.001 11.8776 13.5686C11.91 12.4819 11.713 11.6784 12.1726 11.0345C12.2027 11.9754 12.1938 13.1209 12.5142 13.9092C12.7841 14.0405 13.149 14.0716 13.492 14.1257C14.2962 13.4199 14.1529 12.0414 14.0574 10.7631C13.4537 9.77576 11.8927 10.2096 10.5549 10.3012C10.296 11.705 9.90824 13.4894 10.368 15.4792C10.6972 15.4776 11.0294 15.4789 11.2828 15.4029C10.9988 15.9099 10.7042 16.4072 10.2782 16.7746C9.67081 15.7396 9.61418 14.403 9.12391 13.3274C9.22527 11.3575 9.1717 9.25291 9.81146 7.37551C9.98603 6.86301 10.2858 6.30982 10.5253 5.7742C11.0513 4.59694 11.4793 3.98071 12.2481 3.0363C13.0152 2.09371 13.516 1.45082 14.612 0.874094C16.2259 0.455628 18.3047 0.652079 19.3842 1.84087C19.0434 0.79252 17.9672 0.375705 16.4912 0.308788C15.1406 0.247134 14.8664 0.402335 14.0406 0.943867C11.9869 2.28989 10.3554 4.89251 9.34775 7.09047C9.2499 6.91418 9.44825 6.53758 9.50488 6.323C8.30927 7.29094 7.05883 8.11583 5.60529 9.04384C5.17816 9.31601 4.77411 9.75065 4.30544 9.95075C3.64649 10.231 2.84035 10.1853 2.13893 10.4628C1.75415 10.6149 1.5331 11.0054 1.12196 11.188C0.763224 12.2526 1.02326 13.2062 1.51851 13.9439C2.01824 13.899 2.3369 13.6759 2.77123 13.5671C3.2712 13.8932 3.83011 14.1565 4.33514 14.4778C4.53861 14.3687 4.68662 14.2313 4.89968 14.0554C5.00741 13.9663 5.30859 13.5749 5.40595 13.5752C5.81485 13.5751 6.35687 14.9289 6.80819 15.0184C7.14735 14.6038 7.3405 14.0451 7.63989 13.5912C8.16612 14.4789 8.63013 16.4252 9.14449 17.3844C9.17782 17.4461 9.5526 17.847 9.55545 17.9057C9.57021 18.1953 8.93148 18.5791 8.88535 18.8005C7.54428 18.0678 6.42564 16.9896 5.05595 16.2281C3.68743 15.4664 2.17479 15.0157 0.666477 14.3131C0.0724426 13.4408 -0.198324 11.5678 0.480862 10.6122C0.757959 10.4246 1.10266 10.304 1.32953 10.0667C3.648 9.80401 5.28966 8.41258 6.82987 7.1976C7.36527 6.77515 8.00562 6.33063 8.57983 5.8704C9.15512 5.40896 9.81566 4.94109 10.2142 4.48657C10.6894 3.94411 10.8958 3.14698 11.3803 2.58254C11.601 2.3255 11.9636 2.12099 12.2255 1.86072C13.3765 0.714937 15.1967 -0.440757 17.6912 0.168141C18.388 0.338238 19.3792 0.867282 19.8905 1.36072C20.4354 1.13918 20.8058 0.471798 21.5372 0.623523C21.5488 1.67232 21.1989 2.80861 21.0873 4.04261C22.3306 3.19904 23.7534 1.65526 25.4921 0.782783C26.045 0.50462 26.4985 -0.0103862 27.0872 0.340543C27.089 1.18081 26.9099 1.69406 26.9561 2.45988C27.4405 2.43177 28.0529 1.89901 28.7757 1.77818C29.7998 1.60681 31.0804 1.69159 31.2521 2.49498C30.7037 2.79891 30.2939 3.2396 29.7839 3.58162C28.1492 5.86803 26.2145 7.85797 23.8831 9.45724C23.7796 8.14336 23.986 6.63708 24.4991 5.74111C23.485 6.19983 22.5204 7.20682 21.3875 7.7413C21.5796 9.06166 21.5754 10.1602 21.4036 11.5629C21.6642 11.8043 22.0113 11.954 22.3309 12.133C22.1858 12.835 21.7796 13.2797 21.4465 13.7965C22.1828 13.5778 22.9918 13.4711 23.842 13.2801C25.0686 13.0037 26.3378 12.4984 27.5015 12.9746C27.125 13.5251 26.5488 13.8779 26.0962 14.3541C27.9683 14.4327 30.1142 14.0376 32.0549 14.4747ZM29.9915 2.4604C28.2399 2.29997 27.073 3.11915 25.4272 3.37127C25.7714 2.59674 26.5209 2.2219 26.4126 1.00029C24.0967 1.84565 22.4479 3.84894 20.4218 5.17257C20.5185 3.9418 20.569 2.6649 20.7526 1.52063C18.5398 3.19773 16.8542 6.20306 15.6826 8.90914C16.6897 7.63568 17.7643 6.12211 18.9917 5.25882C19.0827 6.26846 18.7503 7.33443 19.2737 8.01706C20.0665 7.3986 20.9527 7.05049 21.7635 6.44045C22.8005 5.65964 23.6379 4.6534 25.2792 4.60891C25.0543 5.69931 24.9994 6.53531 24.8271 7.9104C26.2284 6.67929 27.4304 5.09031 28.6995 3.77886C29.1415 3.32172 29.7006 2.99815 29.9915 2.4604Z" fill="#231F20"/>
<path d="M31.5084 15.8377C31.4606 16.218 31.6235 16.5248 31.5265 16.7782C29.8436 16.3501 27.2758 16.039 25.5701 16.775C24.7464 17.1301 23.9294 18.1565 24.5297 19.2646C25.5386 21.1257 29.3663 20.4882 31.4178 20.0731C31.3823 20.3643 31.3507 20.6601 31.3788 21.0148C28.1827 21.48 23.9733 21.9684 22.0253 20.0772C21.4972 19.5639 21.0488 18.4376 21.5165 17.4409C22.7033 14.9102 28.8317 15.1624 31.5084 15.8377Z" fill="#231F20"/>
<path d="M19.5883 21.4176C18.7835 21.4083 17.7353 21.4308 16.6686 21.4736C16.4717 21.1233 16.2608 20.7888 16.0195 20.4864C14.3294 20.4265 12.7079 20.506 11.4372 20.4568C11.062 20.6628 10.9828 21.1612 10.6538 21.4128C9.61869 21.4337 8.30157 21.4725 7.67554 21.4111C9.10977 19.3296 10.5481 17.2523 12.0821 15.27C13.2573 15.2644 14.1145 15.3178 15.5184 15.2628C16.8357 17.356 18.3024 19.2907 19.5883 21.4176ZM15.3717 19.5582C14.8829 18.6195 14.3127 17.7684 13.7179 16.9437C13.1547 17.8289 12.5279 18.6513 11.9928 19.5641C13.2658 19.5556 14.4126 19.4801 15.3717 19.5582Z" fill="#231F20"/>
<path d="M31.875 23.0045C31.3372 23.0324 31.1193 23.0236 30.5582 23.0297C30.6744 23.6478 31.5536 23.3299 31.8806 23.2983C31.5819 23.9037 30.1442 23.7191 29.933 23.2769C29.4127 22.1873 31.8223 21.7228 31.875 23.0045ZM30.6076 22.6171C30.6463 22.784 31.1411 22.8686 31.1812 22.665C31.0781 22.5129 30.7795 22.5339 30.6076 22.6171Z" fill="#231F20"/>
<path d="M28.8822 22.2386C29.2821 22.241 29.375 22.2522 29.6849 22.2821C29.2998 22.8357 29.2292 23.9019 28.2808 23.7202C28.0198 23.2789 27.7502 22.846 27.5666 22.3227C27.9025 22.2756 27.9357 22.2774 28.2525 22.2507C28.3969 22.4367 28.4483 22.7215 28.6085 22.8908C28.7174 22.691 28.845 22.5092 28.8822 22.2386Z" fill="#231F20"/>
<path d="M27.3274 21.7981L27.3342 22.1507C27.2048 22.2449 26.78 22.2531 26.6472 22.1639L26.6404 21.8113L27.3274 21.7981Z" fill="#231F20"/>
<path d="M27.3376 22.3271C27.3301 22.8946 27.2791 23.1285 27.3636 23.679C27.2271 23.7939 26.904 23.725 26.6777 23.751C26.5377 23.3239 26.6922 22.8952 26.6495 22.2815C26.7901 22.3911 27.1105 22.3097 27.3376 22.3271Z" fill="#231F20"/>
<path d="M26.0095 21.7646C26.0583 22.3098 26.0717 23.0346 25.9895 23.7054C25.7963 23.8109 25.6525 23.6665 25.3598 23.7175C25.4092 23.0392 25.29 22.6175 25.4382 21.8344C25.5597 21.7826 25.7152 21.7685 26.0095 21.7646Z" fill="#231F20"/>
<path d="M23.4512 22.7545C23.4943 23.0854 23.3358 23.2165 23.2347 23.4056C23.3126 23.5222 23.4263 23.6006 23.5828 23.634C22.7357 23.5485 21.4008 24.0616 20.9974 23.2133C21.0265 22.9728 21.1574 22.8332 21.3902 22.7941C21.3454 22.5816 21.1341 22.5473 21.2071 22.2096C21.7243 21.4594 23.5145 22.3775 22.2501 22.8365C22.3622 22.9765 22.5085 23.0802 22.7137 23.1216C22.8774 23.1101 22.8138 22.8737 22.8204 22.7079C23.0309 22.7226 23.3261 22.6476 23.4512 22.7545ZM22.075 22.6633C22.0864 22.4509 22.0815 22.2564 21.8392 22.3151C21.7104 22.4699 21.8399 22.7125 22.075 22.6633ZM21.6226 22.9661C21.5398 23.3369 22.1061 23.5094 22.258 23.2479C22.0449 23.1548 21.9553 22.9308 21.6226 22.9661Z" fill="#231F20"/>
<path d="M17.8889 22.3909C18.7921 22.1212 19.4672 22.4706 19.2215 23.1886C18.972 23.9177 17.4831 23.8381 17.331 23.1661C17.2096 22.6304 17.4891 22.5097 17.8889 22.3909ZM18.3099 23.4412C18.6548 23.437 18.7784 22.8212 18.4648 22.5562C17.6727 22.4609 17.9326 23.4449 18.3099 23.4412Z" fill="#231F20"/>
<path d="M16.9616 21.8207C17.0069 21.9991 16.8658 21.9954 16.9111 22.1744L16.2814 22.1865L16.2746 21.8339C16.4348 21.7697 16.8082 21.7109 16.9616 21.8207Z" fill="#231F20"/>
<path d="M16.9134 22.2921C16.9152 22.843 16.9592 23.3659 16.8831 23.7039L16.3107 23.7148L16.2847 22.3629C16.4057 22.2513 16.7036 22.3149 16.9134 22.2921Z" fill="#231F20"/>
<path d="M15.5303 21.8482C15.4419 22.4644 15.4992 23.1512 15.4507 23.6725C14.967 23.7095 14.613 23.5622 14.1913 23.6967C13.8428 23.5652 13.6593 23.0166 13.8251 22.5277C14.0872 22.3964 14.3779 22.2043 14.7378 22.3338C14.9018 22.2561 14.7571 21.9983 14.841 21.7439C15.1496 21.7714 15.252 21.7318 15.5303 21.8482ZM14.702 23.4517C14.9359 23.3772 14.8988 22.7858 14.7995 22.5678C14.2311 22.4335 14.2077 23.5071 14.702 23.4517Z" fill="#231F20"/>
<path d="M13.0753 22.2481C13.2087 22.6055 13.1176 23.2022 13.1596 23.6577C13.0023 23.6995 12.4591 23.8648 12.4703 23.5534C12.2424 23.6448 11.8743 23.7424 11.6127 23.6287C11.339 23.4206 11.4519 22.7997 11.4161 22.3388C12.3155 22.0235 11.9744 22.8691 12.1234 23.3837L12.4097 23.3782C12.645 23.226 12.4542 22.6534 12.5039 22.3179C12.7333 22.333 12.8196 22.2066 13.0753 22.2481Z" fill="#231F20"/>
<path d="M10.9592 22.4064C10.9861 22.6441 10.6038 22.4779 10.4462 22.5339L10.4609 23.298C10.4809 23.5364 10.8371 23.4159 10.9807 23.5232C10.8031 23.8818 10.0315 23.6672 9.83451 23.4864C9.70171 23.195 9.92241 22.6655 9.58628 22.4915C9.58494 22.2399 9.8544 22.2565 9.74678 21.9004L10.3765 21.8883C10.4736 21.9647 10.4018 22.2207 10.499 22.2976C10.6722 22.3125 10.943 22.2238 10.9592 22.4064Z" fill="#231F20"/>
<path d="M8.32902 22.6332C8.58145 22.9236 9.26655 22.7524 9.20246 23.3809C8.98928 23.7654 7.90322 23.8134 7.54445 23.5304C7.60889 23.4591 7.60514 23.3211 7.59492 23.1766C7.73031 23.3686 8.16701 23.503 8.45707 23.3365C8.18232 23.0148 7.48469 23.2533 7.52866 22.7074C7.56554 22.2445 9.02795 21.8983 9.18776 22.6167C8.91514 22.6454 8.55241 22.4573 8.32902 22.6332Z" fill="#231F20"/>
</svg>
