<svg width="91" height="24" viewBox="0 0 91 24" fill="none" xmlns="http://www.w3.org/2000/svg">
<path d="M37.7251 13.6159C36.8742 13.6159 36.1036 13.2715 35.5453 12.7144C35.3773 12.5467 35.2284 12.3596 35.1024 12.157C34.8088 11.6846 34.6392 11.1272 34.6392 10.5301C34.6392 9.93494 34.8077 9.37912 35.0996 8.90781C35.2258 8.70395 35.375 8.51589 35.5438 8.34731C36.1021 7.78929 36.8733 7.44416 37.7251 7.44416C38.5764 7.44416 39.3471 7.78886 39.9054 8.34631C40.0752 8.51574 40.2252 8.70481 40.3519 8.90988C40.6257 9.35266 40.7905 9.86978 40.8092 10.424C40.8104 10.4592 40.811 10.4946 40.811 10.5301C40.811 10.5656 40.8104 10.6009 40.8092 10.6361C40.7904 11.1934 40.6238 11.7133 40.3473 12.1578C40.2215 12.36 40.0729 12.5466 39.9053 12.714C39.347 13.2713 38.5763 13.6159 37.7251 13.6159ZM40.8152 0V6.63171C40.8133 6.63014 40.8113 6.62851 40.8092 6.62694C39.961 5.95732 38.8897 5.55764 37.7251 5.55764C36.3527 5.55764 35.1097 6.11281 34.2088 7.01062C33.9367 7.28177 33.6958 7.58422 33.4919 7.91213C33.0462 8.6287 32.7775 9.46662 32.7467 10.365V10.7041C32.7775 11.6013 33.0456 12.4383 33.4902 13.1543C33.6937 13.4821 33.9344 13.7847 34.2062 14.056C35.1074 14.9554 36.3513 15.5115 37.7251 15.5115C38.8897 15.5115 39.961 15.1118 40.8092 14.4422C40.8113 14.4406 40.8133 14.4391 40.8152 14.4374C40.9658 14.3183 41.1092 14.1907 41.2448 14.0552C41.5158 13.7846 41.7559 13.4829 41.959 13.1559C42.4244 12.4071 42.6967 11.5258 42.7063 10.5816V9.34875H42.7036V5.54562H42.7011L42.7017 5.54498H42.7138V0H40.8152Z" fill="#F8485E"/>
<path d="M68.0723 5.58609H66.1884V15.5138H68.0723V5.58609Z" fill="#F8485E"/>
<path d="M89.6201 7.90588C89.4157 7.57555 89.1738 7.27097 88.9003 6.99804C88.763 6.86083 88.6176 6.73166 88.465 6.61116C87.6167 5.94161 86.5454 5.54193 85.3809 5.54193C84.2174 5.54193 83.1471 5.94076 82.2993 6.60932C82.1452 6.73073 81.9986 6.86105 81.8601 6.99939C81.5881 7.27126 81.3473 7.57427 81.1436 7.90289C80.7004 8.61804 80.4333 9.45361 80.4025 10.3493V10.7041C80.4474 12.0122 80.9967 13.1923 81.862 14.0559C81.9999 14.1936 82.1459 14.3233 82.2993 14.4441V10.6857C82.2964 10.6319 82.295 10.5778 82.295 10.5233C82.295 10.4689 82.2964 10.4148 82.2993 10.361C82.3269 9.82719 82.4901 9.32927 82.7554 8.90107C82.8816 8.69721 83.0309 8.50921 83.1996 8.34056C83.7579 7.78254 84.5292 7.43749 85.3809 7.43749C86.2322 7.43749 87.0029 7.78212 87.5612 8.33956C87.731 8.509 87.881 8.69806 88.0077 8.9032C88.2815 9.34599 88.4463 9.86304 88.465 10.4172C88.4662 10.4524 88.4668 10.4878 88.4668 10.5233C88.4668 10.5588 88.4662 10.5942 88.465 10.6294V15.5071H90.362V10.4718C90.3525 9.53114 90.0822 8.65289 89.6201 7.90588Z" fill="#F8485E"/>
<path d="M45.9424 9.57644C46.0947 9.1084 46.3558 8.68959 46.6959 8.34958C47.2543 7.79164 48.0255 7.44651 48.8773 7.44651C50.2479 7.44651 51.4098 8.34012 51.8122 9.57644H45.9424ZM53.767 9.57644C53.3212 7.28263 51.3014 5.55103 48.8773 5.55103C47.5025 5.55103 46.2578 6.10791 45.3565 7.00849C44.6684 7.69589 44.1805 8.58353 43.9876 9.57644C43.9381 9.83073 43.908 10.0919 43.8989 10.3584V10.7065C43.908 10.9725 43.938 11.2332 43.9873 11.4871C44.4326 13.7816 46.4526 15.5138 48.8773 15.5138C50.2515 15.5138 51.4957 14.9574 52.397 14.0575L51.0574 12.7164C50.4991 13.2737 49.7284 13.6183 48.8773 13.6183C47.5062 13.6183 46.3439 12.7241 45.9419 11.4871H53.7673C53.8241 11.1944 53.8554 10.8925 53.8584 10.5839V10.4809C53.8554 10.1719 53.8241 9.86964 53.767 9.57644Z" fill="#F8485E"/>
<path d="M74.2353 13.6062C73.3844 13.6062 72.6138 13.2617 72.0555 12.7046C71.8874 12.5369 71.7386 12.3499 71.6126 12.1472C71.3458 11.718 71.1813 11.2183 71.1537 10.6826C71.1508 10.6289 71.1495 10.5747 71.1495 10.5203C71.1495 10.4658 71.1508 10.4117 71.1537 10.3579C71.1813 9.82418 71.3446 9.32626 71.6098 8.89806C71.736 8.6942 71.8852 8.50613 72.054 8.33748C72.6123 7.77953 73.3835 7.43441 74.2353 7.43441C75.0866 7.43441 75.8574 7.7791 76.4156 8.33655C76.5854 8.50599 76.7354 8.69505 76.8622 8.90012C77.1359 9.34291 77.3008 9.86003 77.3194 10.4142C77.3206 10.4494 77.3212 10.4848 77.3212 10.5203C77.3212 10.5558 77.3206 10.5912 77.3194 10.6264C77.3006 11.1837 77.134 11.7036 76.8575 12.148C76.7317 12.3502 76.5831 12.5368 76.4155 12.7043C75.8572 13.2616 75.0865 13.6062 74.2353 13.6062ZM78.4745 7.9028C78.2701 7.57254 78.0282 7.26796 77.7548 6.99503C77.6174 6.85775 77.472 6.72865 77.3194 6.60815C76.4712 5.93853 75.3999 5.53885 74.2353 5.53885C73.0718 5.53885 72.0015 5.93775 71.1537 6.60623C70.9997 6.72765 70.853 6.85796 70.7145 6.99638C70.4424 7.26817 70.2017 7.57126 69.998 7.89988C69.6194 8.51089 69.3691 9.20989 69.2852 9.95911C69.2708 10.0867 69.2614 10.2158 69.2569 10.3462V10.6943C69.2877 11.5916 69.5558 12.4285 70.0004 13.1445C70.2039 13.4724 70.4446 13.7749 70.7164 14.0462C70.8543 14.1839 71.0004 14.3135 71.1537 14.4344C72.0015 15.1028 73.0718 15.5017 74.2353 15.5017C75.3999 15.5017 76.4712 15.1021 77.3194 14.4324C77.472 14.3119 77.6175 14.1826 77.755 14.0453C78.026 13.7748 78.2661 13.4731 78.4692 13.1462C78.9346 12.3974 79.2069 11.5161 79.2164 10.5718V10.4688C79.207 9.52806 78.9367 8.64981 78.4745 7.9028Z" fill="#F8485E"/>
<path d="M79.2173 19.0186C79.2173 19.9823 78.9437 20.8821 78.4698 21.6445C78.2666 21.9714 78.0266 22.2731 77.7556 22.5437C77.6181 22.681 77.4726 22.8103 77.32 22.9308C76.4717 23.6003 75.4004 24 74.2359 24C73.0724 24 72.002 23.6011 71.1542 22.9326C71.0009 22.8118 70.8549 22.6822 70.7169 22.5445L71.1542 22.1064L72.0561 21.2029C72.6143 21.76 73.3849 22.1044 74.2359 22.1044C75.087 22.1044 75.8577 21.7598 76.416 21.2025C76.5837 21.0351 76.7322 20.8486 76.858 20.6463C77.1345 20.2018 77.3012 19.6819 77.32 19.1246C77.3212 19.0894 77.3218 19.0541 77.3218 19.0186C77.3218 18.983 77.3212 18.9477 77.32 18.9125C77.3013 18.3583 77.1364 17.8412 76.8627 17.3984C76.736 17.1933 76.5859 17.0042 76.4162 16.8348L77.32 15.9294L77.7553 15.4933C78.0288 15.7662 78.2707 16.0708 78.475 16.4011C78.9456 17.1617 79.2173 18.0584 79.2173 19.0186Z" fill="#F8485E"/>
<path d="M20.4149 14.0575C19.5137 14.9574 18.2694 15.5138 16.8952 15.5138C15.5214 15.5138 14.2775 14.9577 13.3762 14.0582C12.5109 13.1946 11.9617 12.0146 11.9168 10.7064V10.3583C11.9617 9.05115 12.5101 7.87181 13.3744 7.00843C14.2757 6.10785 15.5204 5.55096 16.8952 5.55096C18.2692 5.55096 19.5134 6.10735 20.4147 7.00708L19.0755 8.34867C18.5172 7.79115 17.7465 7.44652 16.8952 7.44652C16.0434 7.44652 15.2722 7.79165 14.7138 8.34959C14.155 8.90811 13.8093 9.67988 13.8093 10.5324C13.8093 11.3857 14.1556 12.1581 14.7155 12.7166C15.2736 13.2738 16.0443 13.6183 16.8952 13.6183C17.7464 13.6183 18.517 13.2736 19.0754 12.7164L20.4149 14.0575Z" fill="#3D3D3D"/>
<path d="M30.0996 7.00479C29.9619 6.86715 29.8161 6.73769 29.663 6.61691C28.815 5.94793 27.7442 5.5486 26.5802 5.5486C25.4168 5.5486 24.3463 5.9475 23.4985 6.61606V0H21.6V6.16275L21.6018 6.16452V10.7041C21.6467 12.0122 22.196 13.1923 23.0613 14.0559C23.1992 14.1936 23.3452 14.3233 23.4985 14.444V10.6923C23.4957 10.6386 23.4943 10.5845 23.4943 10.5301C23.4943 10.4756 23.4957 10.4215 23.4985 10.3678C23.5262 9.83393 23.6894 9.33602 23.9547 8.90774C24.0809 8.70395 24.2302 8.51588 24.3989 8.3473C24.9573 7.78929 25.7285 7.44416 26.5802 7.44416C27.4315 7.44416 28.2022 7.78886 28.7605 8.34631C29.2898 8.87467 29.628 9.59422 29.663 10.3925C29.6651 10.4381 29.6661 10.4839 29.6661 10.5301C29.6661 10.5761 29.6651 10.6221 29.663 10.6676V15.5138H31.5616V10.5301C31.5616 9.153 31.0029 7.90644 30.0996 7.00479Z" fill="#3D3D3D"/>
<path d="M5.75117 10.5366L5.73972 10.5437L5.74847 10.5349L5.7501 10.5333L5.75266 10.5357L5.75736 10.5405L5.75117 10.5366ZM10.6402 9.57644H2.81554C2.89229 9.34064 2.99664 9.11722 3.12489 8.91016C3.25114 8.7063 3.40038 8.51831 3.5691 8.34958C4.12747 7.79164 4.89867 7.44651 5.75046 7.44651C6.60175 7.44651 7.37245 7.79121 7.93075 8.34866L9.26985 7.00714C8.3687 6.10734 7.12448 5.55103 5.75046 5.55103C4.58698 5.55103 3.5166 5.94985 2.6688 6.61841C2.51473 6.73983 2.36813 6.87007 2.22964 7.00849C1.95757 7.28028 1.71679 7.58337 1.51314 7.91199C1.2018 8.41438 0.977316 8.97617 0.860734 9.57644C0.811298 9.83073 0.781138 10.0919 0.772034 10.3584V10.7065C0.781138 10.9725 0.811155 11.2332 0.860449 11.4871H8.6858C8.60834 11.7255 8.50264 11.9511 8.37261 12.1602C8.24678 12.3623 8.09826 12.549 7.93061 12.7164C7.3723 13.2737 6.6016 13.6183 5.75046 13.6183C4.89945 13.6183 4.1289 13.2739 3.57066 12.7167L2.6688 13.6203L2.23149 14.0583C2.36948 14.196 2.51551 14.3257 2.6688 14.4465C3.5166 15.1149 4.58698 15.5138 5.75046 15.5138C7.12463 15.5138 8.36884 14.9574 9.27014 14.0575C9.54114 13.7869 9.78114 13.4852 9.98436 13.1583C10.2977 12.6542 10.5235 12.0901 10.6405 11.4871C10.6973 11.1944 10.7285 10.8925 10.7316 10.5839V10.4809C10.7285 10.1719 10.6972 9.86964 10.6402 9.57644Z" fill="#3D3D3D"/>
<path d="M68.0383 0.948081C68.0383 1.47167 67.6138 1.89618 67.0902 1.89618C66.5666 1.89618 66.1421 1.47167 66.1421 0.948081C66.1421 0.424489 66.5666 -1.77169e-05 67.0902 -1.77169e-05C67.6138 -1.77169e-05 68.0383 0.424489 68.0383 0.948081Z" fill="#F8485E"/>
<path d="M60.0228 10.5366L60.0113 10.5437L60.0201 10.5349L60.0218 10.5333L60.0243 10.5357L60.029 10.5405L60.0228 10.5366ZM64.9118 9.57644H57.0871C57.1639 9.34064 57.2682 9.11722 57.3966 8.91016C57.5228 8.7063 57.6721 8.51831 57.8407 8.34958C58.3991 7.79164 59.1703 7.44651 60.0221 7.44651C60.8734 7.44651 61.6441 7.79121 62.2024 8.34866L63.5415 7.00714C62.6403 6.10734 61.3962 5.55103 60.0221 5.55103C58.8586 5.55103 57.7882 5.94985 56.9404 6.61841C56.7864 6.73983 56.6397 6.87007 56.5012 7.00849C56.2292 7.28028 55.9884 7.58337 55.7847 7.91199C55.4734 8.41438 55.2489 8.97617 55.1323 9.57644C55.0829 9.83073 55.0527 10.0919 55.0436 10.3584V10.7065C55.0527 10.9725 55.0828 11.2332 55.1321 11.4871H62.9574C62.8799 11.7255 62.7742 11.9511 62.6442 12.1602C62.5185 12.3623 62.3699 12.549 62.2022 12.7164C61.6439 13.2737 60.8732 13.6183 60.0221 13.6183C59.1711 13.6183 58.4005 13.2739 57.8423 12.7167L56.9404 13.6203L56.5032 14.0583C56.6411 14.196 56.7871 14.3257 56.9404 14.4465C57.7882 15.1149 58.8586 15.5138 60.0221 15.5138C61.3962 15.5138 62.6405 14.9574 63.5417 14.0575C63.8128 13.7869 64.0527 13.4852 64.256 13.1583C64.5693 12.6542 64.7951 12.0901 64.9121 11.4871C64.9689 11.1944 65.0001 10.8925 65.0032 10.5839V10.4809C65.0001 10.1719 64.9688 9.86964 64.9118 9.57644Z" fill="#F8485E"/>
</svg>
