<svg width="36" height="24" viewBox="0 0 36 24" fill="none" xmlns="http://www.w3.org/2000/svg">
<path d="M33.1264 17.886H30.4296V7.59146H28.1414V17.886H24.7923V7.59146H22.4217V17.886H7.66162V16.4149H20.9522V6.12036H26.2618V16.4149H26.6703V6.12036H31.9007V16.4149H33.1264V17.886Z" fill="#7EBA28"/>
<path d="M6.3521 10.6952V9.22572H11.3925V7.75937H5.47007C5.02368 7.76364 4.66342 8.12532 4.66089 8.57172V11.3492C4.66089 11.8004 5.02668 12.1663 5.47799 12.1663H9.69335V13.6374H4.66089V15.1085H10.5754C11.0267 15.1085 11.3925 14.7427 11.3925 14.2914V11.5123C11.3925 11.061 11.0267 10.6952 10.5754 10.6952H6.3521ZM19.5619 9.22572V7.75937H13.6411C13.1898 7.75937 12.824 8.12516 12.824 8.57647V14.2914C12.824 14.7427 13.1898 15.1085 13.6411 15.1085H19.5619V13.6374H14.5231V12.1663H18.0512V10.6952H14.5231V9.22572H19.5619Z" fill="#1D1D1B"/>
<path d="M34.2999 21.2937H1.8454V14.5146C2.79077 14.0344 3.3857 13.0635 3.38459 12.0032C3.3857 10.9428 2.79077 9.97197 1.8454 9.49169V2.71259H34.2999V21.2937ZM35.4432 1.5677H32.3094V0H26.8399V1.5677H24.6403V0H19.1724V1.5677H16.9729V0H11.5049V1.5677H9.30541V0H3.83589V1.5677H0.702087V10.2771L1.09322 10.407C1.77636 10.6333 2.23811 11.2711 2.23969 11.9905C2.23811 12.7101 1.77636 13.3479 1.09322 13.574L0.702087 13.7229V22.4323H3.83589V24H9.30541V22.4323H11.5049V24H16.9745V22.4323H19.174V24H24.6435V22.4323H26.843V24H32.3094V22.4323H35.4432V1.5677Z" fill="#1D1D1B"/>
<path d="M4.82243 16.415C5.52821 16.415 6.10034 16.9872 6.10034 17.6929C6.10034 18.3986 5.52821 18.9709 4.82243 18.9709C4.11665 18.9709 3.54452 18.3986 3.54452 17.6929C3.54452 16.9872 4.11665 16.415 4.82243 16.415Z" fill="#1D1D1B"/>
</svg>
